solid ASCII
  facet normal 0.000000e+00 1.000000e+00 0.000000e+00
    outer loop
      vertex   6.200000e+01 1.800000e+01 -1.300000e+01
      vertex   6.200000e+01 1.800000e+01 1.300000e+01
      vertex   1.120000e+02 1.800000e+01 -1.300000e+01
    endloop
  endfacet
  facet normal 0.000000e+00 1.000000e+00 -0.000000e+00
    outer loop
      vertex   1.120000e+02 1.800000e+01 -1.300000e+01
      vertex   6.200000e+01 1.800000e+01 1.300000e+01
      vertex   1.120000e+02 1.800000e+01 1.300000e+01
    endloop
  endfacet
  facet normal 0.000000e+00 0.000000e+00 -1.000000e+00
    outer loop
      vertex   6.200000e+01 -1.800000e+01 -1.300000e+01
      vertex   6.200000e+01 1.800000e+01 -1.300000e+01
      vertex   1.120000e+02 -1.800000e+01 -1.300000e+01
    endloop
  endfacet
  facet normal 0.000000e+00 0.000000e+00 -1.000000e+00
    outer loop
      vertex   1.120000e+02 -1.800000e+01 -1.300000e+01
      vertex   6.200000e+01 1.800000e+01 -1.300000e+01
      vertex   1.120000e+02 1.800000e+01 -1.300000e+01
    endloop
  endfacet
  facet normal 0.000000e+00 -1.000000e+00 -1.366428e-16
    outer loop
      vertex   6.200000e+01 -1.800000e+01 1.300000e+01
      vertex   6.200000e+01 -1.800000e+01 -1.300000e+01
      vertex   1.120000e+02 -1.800000e+01 1.300000e+01
    endloop
  endfacet
  facet normal 0.000000e+00 -1.000000e+00 -1.366428e-16
    outer loop
      vertex   1.120000e+02 -1.800000e+01 1.300000e+01
      vertex   6.200000e+01 -1.800000e+01 -1.300000e+01
      vertex   1.120000e+02 -1.800000e+01 -1.300000e+01
    endloop
  endfacet
  facet normal -0.000000e+00 4.934325e-17 1.000000e+00
    outer loop
      vertex   6.200000e+01 1.800000e+01 1.300000e+01
      vertex   6.200000e+01 -1.800000e+01 1.300000e+01
      vertex   1.120000e+02 1.800000e+01 1.300000e+01
    endloop
  endfacet
  facet normal 0.000000e+00 4.934325e-17 1.000000e+00
    outer loop
      vertex   1.120000e+02 1.800000e+01 1.300000e+01
      vertex   6.200000e+01 -1.800000e+01 1.300000e+01
      vertex   1.120000e+02 -1.800000e+01 1.300000e+01
    endloop
  endfacet
  facet normal 1.000000e+00 0.000000e+00 0.000000e+00
    outer loop
      vertex   1.120000e+02 -1.800000e+01 1.300000e+01
      vertex   1.120000e+02 -1.800000e+01 -1.300000e+01
      vertex   1.120000e+02 1.800000e+01 1.300000e+01
    endloop
  endfacet
  facet normal 1.000000e+00 0.000000e+00 0.000000e+00
    outer loop
      vertex   1.120000e+02 1.800000e+01 1.300000e+01
      vertex   1.120000e+02 -1.800000e+01 -1.300000e+01
      vertex   1.120000e+02 1.800000e+01 -1.300000e+01
    endloop
  endfacet
  facet normal -1.000000e+00 -0.000000e+00 -0.000000e+00
    outer loop
      vertex   6.200000e+01 1.800000e+01 1.300000e+01
      vertex   6.200000e+01 1.800000e+01 -1.300000e+01
      vertex   6.200000e+01 -1.800000e+01 1.300000e+01
    endloop
  endfacet
  facet normal -1.000000e+00 0.000000e+00 0.000000e+00
    outer loop
      vertex   6.200000e+01 -1.800000e+01 1.300000e+01
      vertex   6.200000e+01 1.800000e+01 -1.300000e+01
      vertex   6.200000e+01 -1.800000e+01 -1.300000e+01
    endloop
  endfacet
endsolid
